<mxfile host="app.diagrams.net" modified="2022-01-30T22:53:15.999Z" agent="5.0 (Windows NT 10.0; Win64; x64) AppleWebKit/537.36 (KHTML, like Gecko) Chrome/97.0.4692.99 Safari/537.36" etag="GuRKswhVubscTQQwyetX" version="15.7.3" type="github">
  <diagram id="wbCcYxUxBUUxMsBeRid3" name="Page-1">
    <mxGraphModel dx="700" dy="752" grid="1" gridSize="10" guides="1" tooltips="1" connect="1" arrows="1" fold="1" page="1" pageScale="1" pageWidth="850" pageHeight="1100" math="0" shadow="0">
      <root>
        <mxCell id="0" />
        <mxCell id="1" parent="0" />
        <mxCell id="JC6Vjy2jM705L_f9XxJJ-2" value="Deliver Food&lt;br&gt;(Worker)" style="ellipse;whiteSpace=wrap;html=1;" vertex="1" parent="1">
          <mxGeometry x="230" y="360" width="120" height="80" as="geometry" />
        </mxCell>
        <mxCell id="JC6Vjy2jM705L_f9XxJJ-3" value="Eat Food&lt;br&gt;(Client)" style="ellipse;whiteSpace=wrap;html=1;" vertex="1" parent="1">
          <mxGeometry x="440" y="360" width="120" height="80" as="geometry" />
        </mxCell>
        <mxCell id="JC6Vjy2jM705L_f9XxJJ-10" style="edgeStyle=orthogonalEdgeStyle;rounded=0;orthogonalLoop=1;jettySize=auto;html=1;exitX=0.5;exitY=1;exitDx=0;exitDy=0;" edge="1" parent="1" source="JC6Vjy2jM705L_f9XxJJ-4">
          <mxGeometry relative="1" as="geometry">
            <mxPoint x="290" y="360" as="targetPoint" />
          </mxGeometry>
        </mxCell>
        <mxCell id="JC6Vjy2jM705L_f9XxJJ-4" value="Pay for Food&lt;br&gt;(Client)" style="ellipse;whiteSpace=wrap;html=1;" vertex="1" parent="1">
          <mxGeometry x="230" y="240" width="120" height="80" as="geometry" />
        </mxCell>
        <mxCell id="JC6Vjy2jM705L_f9XxJJ-9" style="edgeStyle=orthogonalEdgeStyle;rounded=0;orthogonalLoop=1;jettySize=auto;html=1;exitX=0.5;exitY=1;exitDx=0;exitDy=0;entryX=0.5;entryY=0;entryDx=0;entryDy=0;" edge="1" parent="1" source="JC6Vjy2jM705L_f9XxJJ-5" target="JC6Vjy2jM705L_f9XxJJ-4">
          <mxGeometry relative="1" as="geometry" />
        </mxCell>
        <mxCell id="JC6Vjy2jM705L_f9XxJJ-5" value="Order Food&lt;br&gt;(Client)" style="ellipse;whiteSpace=wrap;html=1;" vertex="1" parent="1">
          <mxGeometry x="230" y="110" width="120" height="80" as="geometry" />
        </mxCell>
        <mxCell id="JC6Vjy2jM705L_f9XxJJ-8" style="edgeStyle=orthogonalEdgeStyle;rounded=0;orthogonalLoop=1;jettySize=auto;html=1;exitX=0;exitY=0.5;exitDx=0;exitDy=0;entryX=1.058;entryY=0.5;entryDx=0;entryDy=0;entryPerimeter=0;" edge="1" parent="1" source="JC6Vjy2jM705L_f9XxJJ-6" target="JC6Vjy2jM705L_f9XxJJ-5">
          <mxGeometry relative="1" as="geometry" />
        </mxCell>
        <mxCell id="JC6Vjy2jM705L_f9XxJJ-6" value="Cook Food&lt;br&gt;(Chef)" style="ellipse;whiteSpace=wrap;html=1;" vertex="1" parent="1">
          <mxGeometry x="440" y="110" width="120" height="80" as="geometry" />
        </mxCell>
        <mxCell id="JC6Vjy2jM705L_f9XxJJ-7" value="" style="endArrow=classic;html=1;rounded=0;entryX=0;entryY=0.5;entryDx=0;entryDy=0;" edge="1" parent="1" target="JC6Vjy2jM705L_f9XxJJ-3">
          <mxGeometry width="50" height="50" relative="1" as="geometry">
            <mxPoint x="350" y="400" as="sourcePoint" />
            <mxPoint x="400" y="350" as="targetPoint" />
          </mxGeometry>
        </mxCell>
      </root>
    </mxGraphModel>
  </diagram>
</mxfile>
